<svg width="61" height="105" viewBox="0 0 61 105" fill="none" xmlns="http://www.w3.org/2000/svg">
<g filter="url(#filter0_d_475_2712)">
<path fill-rule="evenodd" clip-rule="evenodd" d="M30.4172 6.29178C32.1645 6.29178 33.581 4.88332 33.581 3.14589C33.581 1.40846 32.1645 0 30.4172 0C28.6698 0 27.2534 1.40846 27.2534 3.14589C27.2534 4.88332 28.6698 6.29178 30.4172 6.29178ZM38.7322 40.8869C39.6975 40.8869 40.4788 40.1084 40.4788 39.1454C40.4788 38.184 39.6975 37.4039 38.7338 37.4039H22.1043C21.1374 37.4039 20.3545 38.1824 20.3545 39.1454C20.3545 40.1084 21.1374 40.8869 22.1043 40.8869H38.7322ZM38.4792 78.0774L45.233 78.0661C39.8884 64.3655 37.396 43.6716 37.2201 42.1468H23.9498C22.8586 69.7937 16.087 77.5124 15.5608 78.0774H38.4792ZM6.85539 89.3786L53.7721 89.3513C53.7721 89.3513 55.7156 83.8219 48.5954 83.3516C48.5921 83.3516 46.5098 83.35 45.6155 79.2668H14.9716C14.991 79.6135 15.0523 82.7995 11.1314 83.4254C6.98452 84.0851 6.67944 86.9533 6.85539 89.3786ZM56.7908 96.2578L56.8311 92.4667C56.8311 92.4667 55.9934 90.7911 54.2339 90.6578C52.4744 90.5262 6.24858 90.7911 6.24858 90.7911C6.24858 90.7911 4.70702 91.4523 4 93.0397L4.04358 96.2578H56.7908ZM20.1856 26.0082C20.0678 16.5159 30.3535 7.49076 30.3535 7.49076C39.6981 15.4084 40.6424 24.7257 40.6424 24.7257C40.8829 35.0895 32.7183 36.6625 30.0597 36.5485C27.3979 36.4329 20.3018 35.4988 20.1856 26.0082Z" fill="#C4C4C4" fill-opacity="0.2" shape-rendering="crispEdges"/>
<path fill-rule="evenodd" clip-rule="evenodd" d="M30.4172 6.29178C32.1645 6.29178 33.581 4.88332 33.581 3.14589C33.581 1.40846 32.1645 0 30.4172 0C28.6698 0 27.2534 1.40846 27.2534 3.14589C27.2534 4.88332 28.6698 6.29178 30.4172 6.29178ZM38.7322 40.8869C39.6975 40.8869 40.4788 40.1084 40.4788 39.1454C40.4788 38.184 39.6975 37.4039 38.7338 37.4039H22.1043C21.1374 37.4039 20.3545 38.1824 20.3545 39.1454C20.3545 40.1084 21.1374 40.8869 22.1043 40.8869H38.7322ZM38.4792 78.0774L45.233 78.0661C39.8884 64.3655 37.396 43.6716 37.2201 42.1468H23.9498C22.8586 69.7937 16.087 77.5124 15.5608 78.0774H38.4792ZM6.85539 89.3786L53.7721 89.3513C53.7721 89.3513 55.7156 83.8219 48.5954 83.3516C48.5921 83.3516 46.5098 83.35 45.6155 79.2668H14.9716C14.991 79.6135 15.0523 82.7995 11.1314 83.4254C6.98452 84.0851 6.67944 86.9533 6.85539 89.3786ZM56.7908 96.2578L56.8311 92.4667C56.8311 92.4667 55.9934 90.7911 54.2339 90.6578C52.4744 90.5262 6.24858 90.7911 6.24858 90.7911C6.24858 90.7911 4.70702 91.4523 4 93.0397L4.04358 96.2578H56.7908ZM20.1856 26.0082C20.0678 16.5159 30.3535 7.49076 30.3535 7.49076C39.6981 15.4084 40.6424 24.7257 40.6424 24.7257C40.8829 35.0895 32.7183 36.6625 30.0597 36.5485C27.3979 36.4329 20.3018 35.4988 20.1856 26.0082Z" fill="url(#paint0_linear_475_2712)" shape-rendering="crispEdges"/>
</g>
<defs>
<filter id="filter0_d_475_2712" x="0" y="0" width="60.8311" height="104.258" filterUnits="userSpaceOnUse" color-interpolation-filters="sRGB">
<feFlood flood-opacity="0" result="BackgroundImageFix"/>
<feColorMatrix in="SourceAlpha" type="matrix" values="0 0 0 0 0 0 0 0 0 0 0 0 0 0 0 0 0 0 127 0" result="hardAlpha"/>
<feOffset dy="4"/>
<feGaussianBlur stdDeviation="2"/>
<feComposite in2="hardAlpha" operator="out"/>
<feColorMatrix type="matrix" values="0 0 0 0 0 0 0 0 0 0 0 0 0 0 0 0 0 0 0.25 0"/>
<feBlend mode="normal" in2="BackgroundImageFix" result="effect1_dropShadow_475_2712"/>
<feBlend mode="normal" in="SourceGraphic" in2="effect1_dropShadow_475_2712" result="shape"/>
</filter>
<linearGradient id="paint0_linear_475_2712" x1="30.4156" y1="0" x2="30.4156" y2="96.2578" gradientUnits="userSpaceOnUse">
<stop/>
<stop offset="1" stop-color="white" stop-opacity="0.7"/>
</linearGradient>
</defs>
</svg>
