<svg width="95" height="102" viewBox="0 0 95 102" fill="none" xmlns="http://www.w3.org/2000/svg">
<path fill-rule="evenodd" clip-rule="evenodd" d="M40.372 73.2821H63.1948C64.3106 71.5848 75.1194 54.4829 70.7805 37.162C67.357 23.4815 58.1822 19.1173 51.5677 15.9709C49.3566 14.9192 47.4316 14.0035 46.1032 12.9214C46.1032 12.9214 39.8888 8.16237 38.6543 4.97168C38.6543 4.97168 38.1516 12.5781 39.7045 16.0611C39.7045 16.0611 26.8624 29.4566 24.5791 31.3234C22.7849 33.0961 22.0373 35.7264 24.4901 36.1173C27.6743 36.6248 28.8326 36.8444 29.4236 40.0141C29.4236 40.0141 30.6566 39.0752 35.0458 36.5742C36.4982 35.7456 38.2314 35.922 40.0827 36.1104C43.8225 36.491 48.044 36.9207 51.4056 29.2137C50.2281 36.8677 34.7372 49.4129 27.1389 54.7288C26.2256 55.7573 31.9847 69.841 36.5526 72.1951C36.5526 72.1951 37.4212 72.7843 41.626 69.8411C45.8267 66.8993 56.7318 58.2253 58.4397 49.3535C58.3364 50.0237 55.9274 64.3668 40.372 73.2821ZM74.6615 89.7634L74.6126 93.9811H20.3591L20.3145 90.4006C20.9624 88.8248 22.2947 88.0676 22.5726 87.9251H72.7427C74.04 88.4199 74.6615 89.7634 74.6615 89.7634ZM71.7556 86.0389V83.5784C71.2984 80.7264 70.0247 80.5248 68.4803 80.2803C67.7131 80.1589 66.8792 80.0268 66.0453 79.5541C63.7076 78.2346 63.3837 75.2988 63.3515 74.894H31.8175C31.8845 77.4115 30.1892 78.533 26.2399 79.752C22.6524 80.857 23.1928 85.1993 23.3324 86.0389H71.7556Z" fill="url(#paint0_linear_475_2700)"/>
<defs>
<linearGradient id="paint0_linear_475_2700" x1="47.488" y1="4.97168" x2="47.488" y2="93.9812" gradientUnits="userSpaceOnUse">
<stop/>
<stop offset="1" stop-color="white" stop-opacity="0.7"/>
</linearGradient>
</defs>
</svg>
