<svg width="525" height="482" viewBox="0 0 525 482" fill="none" xmlns="http://www.w3.org/2000/svg">
<g filter="url(#filter0_d_522_2347)">
<path d="M489.383 304.355C508.601 293.459 508.402 276.153 488.94 265.701L383.221 208.925C363.758 198.473 332.402 198.833 313.185 209.729L208.796 268.915C189.579 279.811 189.777 297.117 209.24 307.569L314.959 364.345C334.421 374.797 365.777 374.437 384.995 363.541L489.383 304.355Z" fill="url(#paint0_linear_522_2347)"/>
</g>
<path d="M34.7855 368.991C15.574 379.897 15.8509 397.073 35.4039 407.355L141.616 463.203C161.169 473.485 192.593 472.978 211.805 462.072L316.161 402.829C335.373 391.922 335.096 374.746 315.543 364.465L209.331 308.616C189.778 298.335 158.353 298.841 139.142 309.748L34.7855 368.991Z" fill="url(#paint1_linear_522_2347)"/>
<g filter="url(#filter1_d_522_2347)">
<path d="M119.5 141.5L127.5 125L151 105L169 94.5L178.5 92H186.5L251.5 131.5L252.7 134.5L255.5 141.5L257 156.5L255.5 173L254 183L248 224L244.5 282.5V290L243 294.5L241 300L240.731 300.5L240.5 304.5L242 309L244.5 313.5L247.5 318.5L250 322L253 327L255 332.5L258.5 339L259.5 343L262 347L264 350L266 353L267.5 361.5L268.5 367.5L266 378L261.5 388L250.5 400L241.5 407L232 412.5L218 418.5L204.5 422.5L188 425.5L169.5 426.5L150 424.5L130.5 418.5L115.5 413L97.5 401L84.5 386.5L79 374V366.5L80.5 357.5L82 352.5L84.5 347L87 343L88 338L93 326.5L97.5 319.5L101.5 314L93 305L88 296.5L86.5 290V282.5L88 270L93 258.5L97 249.5L101.5 239.5L107.5 228L97.5 222.5L89 214L84.5 207.5L80.5 193.5V185V178.5L84.5 169L89 161.5L98.5 156.5L112 149.5L119.5 141.5Z" fill="url(#paint2_radial_522_2347)" shape-rendering="crispEdges"/>
<path d="M119.5 141.5L127.5 125L151 105L169 94.5L178.5 92H186.5L251.5 131.5L252.7 134.5L255.5 141.5L257 156.5L255.5 173L254 183L248 224L244.5 282.5V290L243 294.5L241 300L240.731 300.5L240.5 304.5L242 309L244.5 313.5L247.5 318.5L250 322L253 327L255 332.5L258.5 339L259.5 343L262 347L264 350L266 353L267.5 361.5L268.5 367.5L266 378L261.5 388L250.5 400L241.5 407L232 412.5L218 418.5L204.5 422.5L188 425.5L169.5 426.5L150 424.5L130.5 418.5L115.5 413L97.5 401L84.5 386.5L79 374V366.5L80.5 357.5L82 352.5L84.5 347L87 343L88 338L93 326.5L97.5 319.5L101.5 314L93 305L88 296.5L86.5 290V282.5L88 270L93 258.5L97 249.5L101.5 239.5L107.5 228L97.5 222.5L89 214L84.5 207.5L80.5 193.5V185V178.5L84.5 169L89 161.5L98.5 156.5L112 149.5L119.5 141.5Z" fill="url(#paint3_linear_522_2347)" shape-rendering="crispEdges"/>
<path d="M119.5 141.5L127.5 125L151 105L169 94.5L178.5 92H186.5L251.5 131.5L252.7 134.5L255.5 141.5L257 156.5L255.5 173L254 183L248 224L244.5 282.5V290L243 294.5L241 300L240.731 300.5L240.5 304.5L242 309L244.5 313.5L247.5 318.5L250 322L253 327L255 332.5L258.5 339L259.5 343L262 347L264 350L266 353L267.5 361.5L268.5 367.5L266 378L261.5 388L250.5 400L241.5 407L232 412.5L218 418.5L204.5 422.5L188 425.5L169.5 426.5L150 424.5L130.5 418.5L115.5 413L97.5 401L84.5 386.5L79 374V366.5L80.5 357.5L82 352.5L84.5 347L87 343L88 338L93 326.5L97.5 319.5L101.5 314L93 305L88 296.5L86.5 290V282.5L88 270L93 258.5L97 249.5L101.5 239.5L107.5 228L97.5 222.5L89 214L84.5 207.5L80.5 193.5V185V178.5L84.5 169L89 161.5L98.5 156.5L112 149.5L119.5 141.5Z" fill="url(#paint4_linear_522_2347)" shape-rendering="crispEdges"/>
<path d="M101.5 314L110 323L123 330L137.5 339L150 344H163.5L168 343.074M101.5 314L93 305L88 296.5L86.5 290V282.5L88 270L93 258.5L97 249.5L101.5 239.5L107.5 228M101.5 314L97.5 319.5L93 326.5L88 338L87 343M107.5 228L128.5 239.5L143 247.5L149 251H152.5H158L159.429 250M107.5 228L97.5 222.5L89 214L84.5 207.5L80.5 193.5V185V178.5L84.5 169L89 161.5L98.5 156.5L112 149.5L119.5 141.5L127.5 125L151 105L169 94.5L178.5 92H186.5L251.5 131.5L252.7 134.5M168 343.074L180.5 340.5L200.5 334.5L213 328L227 318L237.5 306.5L240.731 300.5M168 343.074L163.5 338L161.5 332.5L160 325L161.5 316.5L163.5 310L167.5 298.5L174.5 285L181.5 273L191 255L193 247.5V243L191 236.5L186 234H181.5L176.5 236.5L167.5 243L163 247.5L159.429 250M252.7 134.5L255.5 141.5L257 156.5L255.5 173L254 183L248 224L244.5 282.5V290L243 294.5L241 300L240.731 300.5M252.7 134.5L238.5 136.5L230 141.5L222 146L212 154L201.5 165L193 177L188 185L183 191.5L180 193L172.5 196.5L165 199L158 203L155.5 206.5L154 211.5L152.5 223.5V230V240.5V245.5L154 247L155 248L156.5 249L159.429 250M87 343L84.5 347L82 352.5L80.5 357.5L79 366.5V374L84.5 386.5L97.5 401L115.5 413L130.5 418.5L150 424.5L169.5 426.5L188 425.5L204.5 422.5L218 418.5L232 412.5L241.5 407L250.5 400L261.5 388L266 378L268.5 367.5L267.5 361.5L266 353L264 350L262 347L259.5 343M87 343V348.5L88 354.5L91 361.5L96 368L101.5 375L112 383.5L128 392L142 397L159 400.5H177L207.5 396.5L228 387L241.5 379L252 367.5L255 361.5L257 358L259.5 343M259.5 343L258.5 339L255 332.5L253 327L250 322L247.5 318.5L244.5 313.5L242 309L240.5 304.5L240.731 300.5" stroke="url(#paint5_linear_522_2347)" stroke-opacity="0.36" shape-rendering="crispEdges"/>
</g>
<g filter="url(#filter2_d_522_2347)">
<path d="M119.5 141.5L127.5 125L151 105L169 94.5L178.5 92H186.5L251.5 131.5L252.7 134.5L255.5 141.5L257 156.5L255.5 173L254 183L248 224L244.5 282.5V290L243 294.5L241 300L240.731 300.5L240.5 304.5L242 309L244.5 313.5L247.5 318.5L250 322L253 327L255 332.5L258.5 339L259.5 343L262 347L264 350L266 353L267.5 361.5L268.5 367.5L266 378L261.5 388L250.5 400L241.5 407L232 412.5L218 418.5L204.5 422.5L188 425.5L169.5 426.5L150 424.5L130.5 418.5L115.5 413L97.5 401L84.5 386.5L79 374V366.5L80.5 357.5L82 352.5L84.5 347L87 343L88 338L93 326.5L97.5 319.5L101.5 314L93 305L88 296.5L86.5 290V282.5L88 270L93 258.5L97 249.5L101.5 239.5L107.5 228L97.5 222.5L89 214L84.5 207.5L80.5 193.5V185V178.5L84.5 169L89 161.5L98.5 156.5L112 149.5L119.5 141.5Z" fill="url(#paint6_radial_522_2347)" shape-rendering="crispEdges"/>
<path d="M119.5 141.5L127.5 125L151 105L169 94.5L178.5 92H186.5L251.5 131.5L252.7 134.5L255.5 141.5L257 156.5L255.5 173L254 183L248 224L244.5 282.5V290L243 294.5L241 300L240.731 300.5L240.5 304.5L242 309L244.5 313.5L247.5 318.5L250 322L253 327L255 332.5L258.5 339L259.5 343L262 347L264 350L266 353L267.5 361.5L268.5 367.5L266 378L261.5 388L250.5 400L241.5 407L232 412.5L218 418.5L204.5 422.5L188 425.5L169.5 426.5L150 424.5L130.5 418.5L115.5 413L97.5 401L84.5 386.5L79 374V366.5L80.5 357.5L82 352.5L84.5 347L87 343L88 338L93 326.5L97.5 319.5L101.5 314L93 305L88 296.5L86.5 290V282.5L88 270L93 258.5L97 249.5L101.5 239.5L107.5 228L97.5 222.5L89 214L84.5 207.5L80.5 193.5V185V178.5L84.5 169L89 161.5L98.5 156.5L112 149.5L119.5 141.5Z" fill="url(#paint7_radial_522_2347)" shape-rendering="crispEdges"/>
<path d="M119.5 141.5L127.5 125L151 105L169 94.5L178.5 92H186.5L251.5 131.5L252.7 134.5L255.5 141.5L257 156.5L255.5 173L254 183L248 224L244.5 282.5V290L243 294.5L241 300L240.731 300.5L240.5 304.5L242 309L244.5 313.5L247.5 318.5L250 322L253 327L255 332.5L258.5 339L259.5 343L262 347L264 350L266 353L267.5 361.5L268.5 367.5L266 378L261.5 388L250.5 400L241.5 407L232 412.5L218 418.5L204.5 422.5L188 425.5L169.5 426.5L150 424.5L130.5 418.5L115.5 413L97.5 401L84.5 386.5L79 374V366.5L80.5 357.5L82 352.5L84.5 347L87 343L88 338L93 326.5L97.5 319.5L101.5 314L93 305L88 296.5L86.5 290V282.5L88 270L93 258.5L97 249.5L101.5 239.5L107.5 228L97.5 222.5L89 214L84.5 207.5L80.5 193.5V185V178.5L84.5 169L89 161.5L98.5 156.5L112 149.5L119.5 141.5Z" fill="url(#paint8_linear_522_2347)" shape-rendering="crispEdges"/>
<path d="M101.5 314L110 323L123 330L137.5 339L150 344H163.5L168 343.074M101.5 314L93 305L88 296.5L86.5 290V282.5L88 270L93 258.5L97 249.5L101.5 239.5L107.5 228M101.5 314L97.5 319.5L93 326.5L88 338L87 343M107.5 228L128.5 239.5L143 247.5L149 251H152.5H158L159.429 250M107.5 228L97.5 222.5L89 214L84.5 207.5L80.5 193.5V185V178.5L84.5 169L89 161.5L98.5 156.5L112 149.5L119.5 141.5L127.5 125L151 105L169 94.5L178.5 92H186.5L251.5 131.5L252.7 134.5M168 343.074L180.5 340.5L200.5 334.5L213 328L227 318L237.5 306.5L240.731 300.5M168 343.074L163.5 338L161.5 332.5L160 325L161.5 316.5L163.5 310L167.5 298.5L174.5 285L181.5 273L191 255L193 247.5V243L191 236.5L186 234H181.5L176.5 236.5L167.5 243L163 247.5L159.429 250M252.7 134.5L255.5 141.5L257 156.5L255.5 173L254 183L248 224L244.5 282.5V290L243 294.5L241 300L240.731 300.5M252.7 134.5L238.5 136.5L230 141.5L222 146L212 154L201.5 165L193 177L188 185L183 191.5L180 193L172.5 196.5L165 199L158 203L155.5 206.5L154 211.5L152.5 223.5V230V240.5V245.5L154 247L155 248L156.5 249L159.429 250M87 343L84.5 347L82 352.5L80.5 357.5L79 366.5V374L84.5 386.5L97.5 401L115.5 413L130.5 418.5L150 424.5L169.5 426.5L188 425.5L204.5 422.5L218 418.5L232 412.5L241.5 407L250.5 400L261.5 388L266 378L268.5 367.5L267.5 361.5L266 353L264 350L262 347L259.5 343M87 343V348.5L88 354.5L91 361.5L96 368L101.5 375L112 383.5L128 392L142 397L159 400.5H177L207.5 396.5L228 387L241.5 379L252 367.5L255 361.5L257 358L259.5 343M259.5 343L258.5 339L255 332.5L253 327L250 322L247.5 318.5L244.5 313.5L242 309L240.5 304.5L240.731 300.5" stroke="url(#paint9_linear_522_2347)" stroke-opacity="0.36" stroke-width="3" shape-rendering="crispEdges"/>
</g>
<g filter="url(#filter3_d_522_2347)">
<path d="M405 51.5L397 35L373.5 15L355.5 4.5L346 2H338L273 41.5L271.8 44.5L269 51.5L267.5 66.5L269 83L270.5 93L276.5 134L280 192.5V200L281.5 204.5L283.5 210L283.769 210.5L284 214.5L282.5 219L280 223.5L277 228.5L274.5 232L271.5 237L269.5 242.5L266 249L265 253L262.5 257L260.5 260L258.5 263L257 271.5L256 277.5L258.5 288L263 298L274 310L283 317L292.5 322.5L306.5 328.5L320 332.5L336.5 335.5L355 336.5L374.5 334.5L394 328.5L409 323L427 311L440 296.5L445.5 284V276.5L444 267.5L442.5 262.5L440 257L437.5 253L436.5 248L431.5 236.5L427 229.5L423 224L431.5 215L436.5 206.5L438 200V192.5L436.5 180L431.5 168.5L427.5 159.5L423 149.5L417 138L427 132.5L435.5 124L440 117.5L444 103.5V95V88.5L440 79L435.5 71.5L426 66.5L412.5 59.5L405 51.5Z" fill="url(#paint10_radial_522_2347)" shape-rendering="crispEdges"/>
<path d="M405 51.5L397 35L373.5 15L355.5 4.5L346 2H338L273 41.5L271.8 44.5L269 51.5L267.5 66.5L269 83L270.5 93L276.5 134L280 192.5V200L281.5 204.5L283.5 210L283.769 210.5L284 214.5L282.5 219L280 223.5L277 228.5L274.5 232L271.5 237L269.5 242.5L266 249L265 253L262.5 257L260.5 260L258.5 263L257 271.5L256 277.5L258.5 288L263 298L274 310L283 317L292.5 322.5L306.5 328.5L320 332.5L336.5 335.5L355 336.5L374.5 334.5L394 328.5L409 323L427 311L440 296.5L445.5 284V276.5L444 267.5L442.5 262.5L440 257L437.5 253L436.5 248L431.5 236.5L427 229.5L423 224L431.5 215L436.5 206.5L438 200V192.5L436.5 180L431.5 168.5L427.5 159.5L423 149.5L417 138L427 132.5L435.5 124L440 117.5L444 103.5V95V88.5L440 79L435.5 71.5L426 66.5L412.5 59.5L405 51.5Z" fill="url(#paint11_linear_522_2347)" shape-rendering="crispEdges"/>
<path d="M405 51.5L397 35L373.5 15L355.5 4.5L346 2H338L273 41.5L271.8 44.5L269 51.5L267.5 66.5L269 83L270.5 93L276.5 134L280 192.5V200L281.5 204.5L283.5 210L283.769 210.5L284 214.5L282.5 219L280 223.5L277 228.5L274.5 232L271.5 237L269.5 242.5L266 249L265 253L262.5 257L260.5 260L258.5 263L257 271.5L256 277.5L258.5 288L263 298L274 310L283 317L292.5 322.5L306.5 328.5L320 332.5L336.5 335.5L355 336.5L374.5 334.5L394 328.5L409 323L427 311L440 296.5L445.5 284V276.5L444 267.5L442.5 262.5L440 257L437.5 253L436.5 248L431.5 236.5L427 229.5L423 224L431.5 215L436.5 206.5L438 200V192.5L436.5 180L431.5 168.5L427.5 159.5L423 149.5L417 138L427 132.5L435.5 124L440 117.5L444 103.5V95V88.5L440 79L435.5 71.5L426 66.5L412.5 59.5L405 51.5Z" fill="url(#paint12_linear_522_2347)" shape-rendering="crispEdges"/>
<path d="M423 224L414.5 233L401.5 240L387 249L374.5 254H361L356.5 253.074M423 224L431.5 215L436.5 206.5L438 200V192.5L436.5 180L431.5 168.5L427.5 159.5L423 149.5L417 138M423 224L427 229.5L431.5 236.5L436.5 248L437.5 253M417 138L396 149.5L381.5 157.5L375.5 161H372H366.5L365.071 160M417 138L427 132.5L435.5 124L440 117.5L444 103.5V95V88.5L440 79L435.5 71.5L426 66.5L412.5 59.5L405 51.5L397 35L373.5 15L355.5 4.5L346 2H338L273 41.5L271.8 44.5M356.5 253.074L344 250.5L324 244.5L311.5 238L297.5 228L287 216.5L283.769 210.5M356.5 253.074L361 248L363 242.5L364.5 235L363 226.5L361 220L357 208.5L350 195L343 183L333.5 165L331.5 157.5V153L333.5 146.5L338.5 144H343L348 146.5L357 153L361.5 157.5L365.071 160M271.8 44.5L269 51.5L267.5 66.5L269 83L270.5 93L276.5 134L280 192.5V200L281.5 204.5L283.5 210L283.769 210.5M271.8 44.5L286 46.5L294.5 51.5L302.5 56L312.5 64L323 75L331.5 87L336.5 95L341.5 101.5L344.5 103L352 106.5L359.5 109L366.5 113L369 116.5L370.5 121.5L372 133.5V140V150.5V155.5L370.5 157L369.5 158L368 159L365.071 160M437.5 253L440 257L442.5 262.5L444 267.5L445.5 276.5V284L440 296.5L427 311L409 323L394 328.5L374.5 334.5L355 336.5L336.5 335.5L320 332.5L306.5 328.5L292.5 322.5L283 317L274 310L263 298L258.5 288L256 277.5L257 271.5L258.5 263L260.5 260L262.5 257L265 253M437.5 253V258.5L436.5 264.5L433.5 271.5L428.5 278L423 285L412.5 293.5L396.5 302L382.5 307L365.5 310.5H347.5L317 306.5L296.5 297L283 289L272.5 277.5L269.5 271.5L267.5 268L265 253M265 253L266 249L269.5 242.5L271.5 237L274.5 232L277 228.5L280 223.5L282.5 219L284 214.5L283.769 210.5" stroke="url(#paint13_linear_522_2347)" stroke-opacity="0.36" shape-rendering="crispEdges"/>
</g>
<g filter="url(#filter4_d_522_2347)">
<path d="M405 51.5L397 35L373.5 15L355.5 4.5L346 2H338L273 41.5L271.8 44.5L269 51.5L267.5 66.5L269 83L270.5 93L276.5 134L280 192.5V200L281.5 204.5L283.5 210L283.769 210.5L284 214.5L282.5 219L280 223.5L277 228.5L274.5 232L271.5 237L269.5 242.5L266 249L265 253L262.5 257L260.5 260L258.5 263L257 271.5L256 277.5L258.5 288L263 298L274 310L283 317L292.5 322.5L306.5 328.5L320 332.5L336.5 335.5L355 336.5L374.5 334.5L394 328.5L409 323L427 311L440 296.5L445.5 284V276.5L444 267.5L442.5 262.5L440 257L437.5 253L436.5 248L431.5 236.5L427 229.5L423 224L431.5 215L436.5 206.5L438 200V192.5L436.5 180L431.5 168.5L427.5 159.5L423 149.5L417 138L427 132.5L435.5 124L440 117.5L444 103.5V95V88.5L440 79L435.5 71.5L426 66.5L412.5 59.5L405 51.5Z" fill="url(#paint14_radial_522_2347)" shape-rendering="crispEdges"/>
<path d="M405 51.5L397 35L373.5 15L355.5 4.5L346 2H338L273 41.5L271.8 44.5L269 51.5L267.5 66.5L269 83L270.5 93L276.5 134L280 192.5V200L281.5 204.5L283.5 210L283.769 210.5L284 214.5L282.5 219L280 223.5L277 228.5L274.5 232L271.5 237L269.5 242.5L266 249L265 253L262.5 257L260.5 260L258.5 263L257 271.5L256 277.5L258.5 288L263 298L274 310L283 317L292.5 322.5L306.5 328.5L320 332.5L336.5 335.5L355 336.5L374.5 334.5L394 328.5L409 323L427 311L440 296.5L445.5 284V276.5L444 267.5L442.5 262.5L440 257L437.5 253L436.5 248L431.5 236.5L427 229.5L423 224L431.5 215L436.5 206.5L438 200V192.5L436.5 180L431.5 168.5L427.5 159.5L423 149.5L417 138L427 132.5L435.5 124L440 117.5L444 103.5V95V88.5L440 79L435.5 71.5L426 66.5L412.5 59.5L405 51.5Z" fill="url(#paint15_radial_522_2347)" shape-rendering="crispEdges"/>
<path d="M405 51.5L397 35L373.5 15L355.5 4.5L346 2H338L273 41.5L271.8 44.5L269 51.5L267.5 66.5L269 83L270.5 93L276.5 134L280 192.5V200L281.5 204.5L283.5 210L283.769 210.5L284 214.5L282.5 219L280 223.5L277 228.5L274.5 232L271.5 237L269.5 242.5L266 249L265 253L262.5 257L260.5 260L258.5 263L257 271.5L256 277.5L258.5 288L263 298L274 310L283 317L292.5 322.5L306.5 328.5L320 332.5L336.5 335.5L355 336.5L374.5 334.5L394 328.5L409 323L427 311L440 296.5L445.5 284V276.5L444 267.5L442.5 262.5L440 257L437.5 253L436.5 248L431.5 236.5L427 229.5L423 224L431.5 215L436.5 206.5L438 200V192.5L436.5 180L431.5 168.5L427.5 159.5L423 149.5L417 138L427 132.5L435.5 124L440 117.5L444 103.5V95V88.5L440 79L435.5 71.5L426 66.5L412.5 59.5L405 51.5Z" fill="url(#paint16_linear_522_2347)" shape-rendering="crispEdges"/>
<path d="M423 224L414.5 233L401.5 240L387 249L374.5 254H361L356.5 253.074M423 224L431.5 215L436.5 206.5L438 200V192.5L436.5 180L431.5 168.5L427.5 159.5L423 149.5L417 138M423 224L427 229.5L431.5 236.5L436.5 248L437.5 253M417 138L396 149.5L381.5 157.5L375.5 161H372H366.5L365.071 160M417 138L427 132.5L435.5 124L440 117.5L444 103.5V95V88.5L440 79L435.5 71.5L426 66.5L412.5 59.5L405 51.5L397 35L373.5 15L355.5 4.5L346 2H338L273 41.5L271.8 44.5M356.5 253.074L344 250.5L324 244.5L311.5 238L297.5 228L287 216.5L283.769 210.5M356.5 253.074L361 248L363 242.5L364.5 235L363 226.5L361 220L357 208.5L350 195L343 183L333.5 165L331.5 157.5V153L333.5 146.5L338.5 144H343L348 146.5L357 153L361.5 157.5L365.071 160M271.8 44.5L269 51.5L267.5 66.5L269 83L270.5 93L276.5 134L280 192.5V200L281.5 204.5L283.5 210L283.769 210.5M271.8 44.5L286 46.5L294.5 51.5L302.5 56L312.5 64L323 75L331.5 87L336.5 95L341.5 101.5L344.5 103L352 106.5L359.5 109L366.5 113L369 116.5L370.5 121.5L372 133.5V140V150.5V155.5L370.5 157L369.5 158L368 159L365.071 160M437.5 253L440 257L442.5 262.5L444 267.5L445.5 276.5V284L440 296.5L427 311L409 323L394 328.5L374.5 334.5L355 336.5L336.5 335.5L320 332.5L306.5 328.5L292.5 322.5L283 317L274 310L263 298L258.5 288L256 277.5L257 271.5L258.5 263L260.5 260L262.5 257L265 253M437.5 253V258.5L436.5 264.5L433.5 271.5L428.5 278L423 285L412.5 293.5L396.5 302L382.5 307L365.5 310.5H347.5L317 306.5L296.5 297L283 289L272.5 277.5L269.5 271.5L267.5 268L265 253M265 253L266 249L269.5 242.5L271.5 237L274.5 232L277 228.5L280 223.5L282.5 219L284 214.5L283.769 210.5" stroke="url(#paint17_linear_522_2347)" stroke-opacity="0.36" stroke-width="3" shape-rendering="crispEdges"/>
</g>
<defs>
<filter id="filter0_d_522_2347" x="190.512" y="201.316" width="317.156" height="178.638" filterUnits="userSpaceOnUse" color-interpolation-filters="sRGB">
<feFlood flood-opacity="0" result="BackgroundImageFix"/>
<feColorMatrix in="SourceAlpha" type="matrix" values="0 0 0 0 0 0 0 0 0 0 0 0 0 0 0 0 0 0 127 0" result="hardAlpha"/>
<feOffset dy="4"/>
<feGaussianBlur stdDeviation="2"/>
<feComposite in2="hardAlpha" operator="out"/>
<feColorMatrix type="matrix" values="0 0 0 0 0 0 0 0 0 0 0 0 0 0 0 0 0 0 0.25 0"/>
<feBlend mode="normal" in2="BackgroundImageFix" result="effect1_dropShadow_522_2347"/>
<feBlend mode="normal" in="SourceGraphic" in2="effect1_dropShadow_522_2347" result="shape"/>
</filter>
<filter id="filter1_d_522_2347" x="74.5" y="91.5" width="198.51" height="343.501" filterUnits="userSpaceOnUse" color-interpolation-filters="sRGB">
<feFlood flood-opacity="0" result="BackgroundImageFix"/>
<feColorMatrix in="SourceAlpha" type="matrix" values="0 0 0 0 0 0 0 0 0 0 0 0 0 0 0 0 0 0 127 0" result="hardAlpha"/>
<feOffset dy="4"/>
<feGaussianBlur stdDeviation="2"/>
<feComposite in2="hardAlpha" operator="out"/>
<feColorMatrix type="matrix" values="0 0 0 0 0 0 0 0 0 0 0 0 0 0 0 0 0 0 0.25 0"/>
<feBlend mode="normal" in2="BackgroundImageFix" result="effect1_dropShadow_522_2347"/>
<feBlend mode="normal" in="SourceGraphic" in2="effect1_dropShadow_522_2347" result="shape"/>
</filter>
<filter id="filter2_d_522_2347" x="73.5" y="90.5" width="200.529" height="345.504" filterUnits="userSpaceOnUse" color-interpolation-filters="sRGB">
<feFlood flood-opacity="0" result="BackgroundImageFix"/>
<feColorMatrix in="SourceAlpha" type="matrix" values="0 0 0 0 0 0 0 0 0 0 0 0 0 0 0 0 0 0 127 0" result="hardAlpha"/>
<feOffset dy="4"/>
<feGaussianBlur stdDeviation="2"/>
<feComposite in2="hardAlpha" operator="out"/>
<feColorMatrix type="matrix" values="0 0 0 0 0 0 0 0 0 0 0 0 0 0 0 0 0 0 0.25 0"/>
<feBlend mode="normal" in2="BackgroundImageFix" result="effect1_dropShadow_522_2347"/>
<feBlend mode="normal" in="SourceGraphic" in2="effect1_dropShadow_522_2347" result="shape"/>
</filter>
<filter id="filter3_d_522_2347" x="251.49" y="1.5" width="198.51" height="343.501" filterUnits="userSpaceOnUse" color-interpolation-filters="sRGB">
<feFlood flood-opacity="0" result="BackgroundImageFix"/>
<feColorMatrix in="SourceAlpha" type="matrix" values="0 0 0 0 0 0 0 0 0 0 0 0 0 0 0 0 0 0 127 0" result="hardAlpha"/>
<feOffset dy="4"/>
<feGaussianBlur stdDeviation="2"/>
<feComposite in2="hardAlpha" operator="out"/>
<feColorMatrix type="matrix" values="0 0 0 0 0 0 0 0 0 0 0 0 0 0 0 0 0 0 0.25 0"/>
<feBlend mode="normal" in2="BackgroundImageFix" result="effect1_dropShadow_522_2347"/>
<feBlend mode="normal" in="SourceGraphic" in2="effect1_dropShadow_522_2347" result="shape"/>
</filter>
<filter id="filter4_d_522_2347" x="250.471" y="0.5" width="200.529" height="345.504" filterUnits="userSpaceOnUse" color-interpolation-filters="sRGB">
<feFlood flood-opacity="0" result="BackgroundImageFix"/>
<feColorMatrix in="SourceAlpha" type="matrix" values="0 0 0 0 0 0 0 0 0 0 0 0 0 0 0 0 0 0 127 0" result="hardAlpha"/>
<feOffset dy="4"/>
<feGaussianBlur stdDeviation="2"/>
<feComposite in2="hardAlpha" operator="out"/>
<feColorMatrix type="matrix" values="0 0 0 0 0 0 0 0 0 0 0 0 0 0 0 0 0 0 0.25 0"/>
<feBlend mode="normal" in2="BackgroundImageFix" result="effect1_dropShadow_522_2347"/>
<feBlend mode="normal" in="SourceGraphic" in2="effect1_dropShadow_522_2347" result="shape"/>
</filter>
<linearGradient id="paint0_linear_522_2347" x1="436.08" y1="237.313" x2="356.017" y2="386.395" gradientUnits="userSpaceOnUse">
<stop stop-color="#299C8E"/>
<stop offset="0.343101" stop-color="#258C7F"/>
<stop offset="0.413419" stop-color="#238478"/>
<stop offset="1" stop-color="#1C6C62"/>
</linearGradient>
<linearGradient id="paint1_linear_522_2347" x1="88.5097" y1="435.279" x2="166.856" y2="286.282" gradientUnits="userSpaceOnUse">
<stop stop-color="#F4A160"/>
<stop offset="0.343101" stop-color="#F19F5E"/>
<stop offset="0.413419" stop-color="#F09E5D"/>
<stop offset="1" stop-color="#E76F51"/>
</linearGradient>
<radialGradient id="paint2_radial_522_2347" cx="0" cy="0" r="1" gradientUnits="userSpaceOnUse" gradientTransform="translate(173.75 259.25) rotate(89.9133) scale(165.25 151.294)">
<stop stop-color="#26555D"/>
<stop offset="1" stop-color="#299589"/>
</radialGradient>
<linearGradient id="paint3_linear_522_2347" x1="139.5" y1="245.5" x2="118" y2="308" gradientUnits="userSpaceOnUse">
<stop stop-color="#1F7067"/>
<stop offset="0.437146" stop-color="#FDD1B7" stop-opacity="0.416274"/>
<stop offset="1" stop-color="#F98D4D" stop-opacity="0"/>
</linearGradient>
<linearGradient id="paint4_linear_522_2347" x1="83.5" y1="173.5" x2="176.5" y2="213.5" gradientUnits="userSpaceOnUse">
<stop stop-color="white" stop-opacity="0.7"/>
<stop offset="1" stop-color="#F98D4D" stop-opacity="0"/>
</linearGradient>
<linearGradient id="paint5_linear_522_2347" x1="141" y1="116" x2="173.75" y2="426.5" gradientUnits="userSpaceOnUse">
<stop stop-color="#29998C"/>
<stop offset="1" stop-color="#26575F"/>
</linearGradient>
<radialGradient id="paint6_radial_522_2347" cx="0" cy="0" r="1" gradientUnits="userSpaceOnUse" gradientTransform="translate(173.75 259.25) rotate(89.9133) scale(165.25 151.294)">
<stop stop-color="#26555D"/>
<stop offset="1" stop-color="#299589"/>
</radialGradient>
<radialGradient id="paint7_radial_522_2347" cx="0" cy="0" r="1" gradientUnits="userSpaceOnUse" gradientTransform="translate(142.5 204.5) rotate(9.4195) scale(109.983 100.694)">
<stop stop-color="#27686A"/>
<stop offset="1" stop-color="#287B77"/>
</radialGradient>
<linearGradient id="paint8_linear_522_2347" x1="248" y1="130.5" x2="246.5" y2="271" gradientUnits="userSpaceOnUse">
<stop stop-color="white" stop-opacity="0.7"/>
<stop offset="0.437146" stop-color="#FDD1B7" stop-opacity="0.416274"/>
<stop offset="1" stop-color="#F98D4D" stop-opacity="0"/>
</linearGradient>
<linearGradient id="paint9_linear_522_2347" x1="141" y1="116" x2="173.75" y2="426.5" gradientUnits="userSpaceOnUse">
<stop stop-color="#0D0602" stop-opacity="0"/>
<stop offset="1" stop-color="#299B8D"/>
</linearGradient>
<radialGradient id="paint10_radial_522_2347" cx="0" cy="0" r="1" gradientUnits="userSpaceOnUse" gradientTransform="translate(350.75 169.25) rotate(90.0867) scale(165.25 151.294)">
<stop stop-color="#F98D4D" stop-opacity="0.39"/>
<stop offset="1" stop-color="#F98D4D" stop-opacity="0.92"/>
</radialGradient>
<linearGradient id="paint11_linear_522_2347" x1="385" y1="155.5" x2="406.5" y2="218" gradientUnits="userSpaceOnUse">
<stop stop-color="white" stop-opacity="0.7"/>
<stop offset="0.437146" stop-color="#FDD1B7" stop-opacity="0.416274"/>
<stop offset="1" stop-color="#F98D4D" stop-opacity="0"/>
</linearGradient>
<linearGradient id="paint12_linear_522_2347" x1="441" y1="83.5" x2="348" y2="123.5" gradientUnits="userSpaceOnUse">
<stop stop-color="white" stop-opacity="0.7"/>
<stop offset="1" stop-color="#F98D4D" stop-opacity="0"/>
</linearGradient>
<linearGradient id="paint13_linear_522_2347" x1="383.5" y1="26" x2="350.75" y2="336.5" gradientUnits="userSpaceOnUse">
<stop stop-color="#F98D4D" stop-opacity="0"/>
<stop offset="1" stop-color="#F98D4D"/>
</linearGradient>
<radialGradient id="paint14_radial_522_2347" cx="0" cy="0" r="1" gradientUnits="userSpaceOnUse" gradientTransform="translate(350.75 169.25) rotate(90.0867) scale(165.25 151.294)">
<stop stop-color="#F98D4D" stop-opacity="0.39"/>
<stop offset="1" stop-color="#F98D4D" stop-opacity="0.92"/>
</radialGradient>
<radialGradient id="paint15_radial_522_2347" cx="0" cy="0" r="1" gradientUnits="userSpaceOnUse" gradientTransform="translate(382 114.5) rotate(170.58) scale(109.983 100.694)">
<stop stop-color="#F98D4D" stop-opacity="0.39"/>
<stop offset="1" stop-color="#F98D4D" stop-opacity="0.92"/>
</radialGradient>
<linearGradient id="paint16_linear_522_2347" x1="276.5" y1="40.5" x2="278" y2="181" gradientUnits="userSpaceOnUse">
<stop stop-color="white" stop-opacity="0.7"/>
<stop offset="0.437146" stop-color="#FDD1B7" stop-opacity="0.416274"/>
<stop offset="1" stop-color="#F98D4D" stop-opacity="0"/>
</linearGradient>
<linearGradient id="paint17_linear_522_2347" x1="383.5" y1="26" x2="350.75" y2="336.5" gradientUnits="userSpaceOnUse">
<stop stop-color="#6C2B04" stop-opacity="0"/>
<stop offset="1" stop-color="#F98D4D"/>
</linearGradient>
</defs>
</svg>
