<svg width="122" height="102" viewBox="0 0 122 102" fill="none" xmlns="http://www.w3.org/2000/svg">
<g filter="url(#filter0_d_527_1659)">
<path fill-rule="evenodd" clip-rule="evenodd" d="M64.7188 18.4139C64.7188 25.8378 58.7005 31.8561 51.2766 31.8561C43.8527 31.8561 37.8344 25.8378 37.8344 18.4139C37.8344 10.99 43.8527 4.97168 51.2766 4.97168C58.7005 4.97168 64.7188 10.99 64.7188 18.4139ZM63.6587 34.9507C63.6587 36.104 62.6941 37.0419 61.5036 37.0419H40.7695C39.5745 37.0419 38.6099 36.104 38.6099 34.9507C38.6099 33.7988 39.573 32.8594 40.7695 32.8594H61.5021C62.6926 32.8579 63.6587 33.7973 63.6587 34.9507ZM68.3312 71.4501H34.1772C35.1789 70.2581 40.5817 62.7671 42.0517 38.6115H61.0482C61.0334 39.7248 60.8862 58.6307 68.3312 71.4501ZM79.1795 85.6682H22.7859C22.6149 82.7298 23.095 79.3662 27.9359 78.5651C32.4127 77.8368 32.5643 74.2355 32.5465 73.5206H69.352C70.4311 78.4804 72.9103 78.4804 72.9103 78.4804C80.5469 78.9932 79.4902 84.5044 79.1795 85.6682ZM82.5893 93.9811L82.6428 89.6173C82.6428 89.6173 81.9041 88.2038 80.3628 87.7059H21.9091C21.6638 87.8129 20.0229 88.5888 19.2456 90.2772L19.2961 93.9811H82.5893Z" fill="url(#paint0_linear_527_1659)"/>
</g>
<g filter="url(#filter1_d_527_1659)">
<path fill-rule="evenodd" clip-rule="evenodd" d="M92.3943 33.4423C92.3943 39.265 87.615 43.9852 81.7196 43.9852C75.8241 43.9852 71.0449 39.265 71.0449 33.4423C71.0449 27.6196 75.8241 22.8994 81.7196 22.8994C87.615 22.8994 92.3943 27.6196 92.3943 33.4423ZM91.5525 46.4123C91.5525 47.3169 90.7864 48.0525 89.841 48.0525H73.3757C72.4268 48.0525 71.6607 47.3169 71.6607 46.4123C71.6607 45.5089 72.4256 44.7721 73.3757 44.7721H89.8398C90.7853 44.771 91.5525 45.5077 91.5525 46.4123ZM95.2629 75.0394H68.1406C68.9361 74.1045 73.2266 68.2292 74.3939 49.2836H89.4794C89.4676 50.1568 89.3507 64.9849 95.2629 75.0394ZM103.878 86.1908H59.0946C58.9589 83.8862 59.3401 81.2481 63.1844 80.6198C66.7394 80.0485 66.8598 77.224 66.8457 76.6632H96.0736C96.9305 80.5533 98.8992 80.5533 98.8992 80.5533C104.964 80.9555 104.124 85.278 103.878 86.1908ZM106.586 92.7108L106.628 89.2881C106.628 89.2881 106.041 88.1795 104.817 87.789H58.3983C58.2036 87.8729 56.9005 88.4814 56.2832 89.8057L56.3233 92.7108H106.586Z" fill="url(#paint1_linear_527_1659)"/>
</g>
<defs>
<filter id="filter0_d_527_1659" x="-4" y="0" width="110" height="110" filterUnits="userSpaceOnUse" color-interpolation-filters="sRGB">
<feFlood flood-opacity="0" result="BackgroundImageFix"/>
<feColorMatrix in="SourceAlpha" type="matrix" values="0 0 0 0 0 0 0 0 0 0 0 0 0 0 0 0 0 0 127 0" result="hardAlpha"/>
<feOffset dy="4"/>
<feGaussianBlur stdDeviation="2"/>
<feComposite in2="hardAlpha" operator="out"/>
<feColorMatrix type="matrix" values="0 0 0 0 0 0 0 0 0 0 0 0 0 0 0 0 0 0 0.25 0"/>
<feBlend mode="normal" in2="BackgroundImageFix" result="effect1_dropShadow_527_1659"/>
<feBlend mode="normal" in="SourceGraphic" in2="effect1_dropShadow_527_1659" result="shape"/>
</filter>
<filter id="filter1_d_527_1659" x="37" y="19" width="89" height="88" filterUnits="userSpaceOnUse" color-interpolation-filters="sRGB">
<feFlood flood-opacity="0" result="BackgroundImageFix"/>
<feColorMatrix in="SourceAlpha" type="matrix" values="0 0 0 0 0 0 0 0 0 0 0 0 0 0 0 0 0 0 127 0" result="hardAlpha"/>
<feOffset dy="4"/>
<feGaussianBlur stdDeviation="2"/>
<feComposite in2="hardAlpha" operator="out"/>
<feColorMatrix type="matrix" values="0 0 0 0 0 0 0 0 0 0 0 0 0 0 0 0 0 0 0.25 0"/>
<feBlend mode="normal" in2="BackgroundImageFix" result="effect1_dropShadow_527_1659"/>
<feBlend mode="normal" in="SourceGraphic" in2="effect1_dropShadow_527_1659" result="shape"/>
</filter>
<linearGradient id="paint0_linear_527_1659" x1="50.9442" y1="4.97168" x2="50.9442" y2="93.9811" gradientUnits="userSpaceOnUse">
<stop stop-color="#2B2E4D"/>
<stop offset="1" stop-color="white" stop-opacity="0.7"/>
</linearGradient>
<linearGradient id="paint1_linear_527_1659" x1="81.4556" y1="22.8994" x2="81.4556" y2="92.7107" gradientUnits="userSpaceOnUse">
<stop stop-color="#2B2E4D"/>
<stop offset="1" stop-color="white" stop-opacity="0.7"/>
</linearGradient>
</defs>
</svg>
